<?xml version="1.0" encoding="iso-8859-1"?>
<!-- Uploaded to: SVG Repo, www.svgrepo.com, Generator: SVG Repo Mixer Tools -->
<svg height="800px" width="800px" version="1.1" id="Layer_1" xmlns="http://www.w3.org/2000/svg" xmlns:xlink="http://www.w3.org/1999/xlink" 
	 viewBox="0 0 512.004 512.004" xml:space="preserve">
<path style="fill:#E0A88F;" d="M198.547,255.25l-0.516,44.468c0,0,18.697,24.35,52.613,24.35c40.873,0,64.497-24.35,64.497-24.35
	l0.599-45.994L198.547,255.25z"/>
<path style="fill:#D49481;" d="M246.398,284.705c7.058,3.818,17.069,8.257,29.658,10.955c16.211,3.475,30.03,2.637,39.085,1.353
	c0.199-14.429,0.399-28.859,0.599-43.288L246.398,284.705z"/>
<ellipse style="fill:#F2C6A0;" cx="256.581" cy="158.748" rx="89.491" ry="126.769"/>
<path d="M256.615,254.589c0.157,0,0.312-0.001,0.468-0.002c4.861-0.057,9.663-1.017,14.273-2.854
	c4.462-1.778,6.638-6.835,4.861-11.297c-1.778-4.462-6.836-6.637-11.297-4.861c-2.619,1.044-5.324,1.589-8.042,1.62
	c-3.182,0.034-6.361-0.628-9.437-1.98c-4.393-1.932-9.526,0.065-11.461,4.462c-1.933,4.397,0.065,9.528,4.462,11.461
	C245.655,253.428,251.095,254.589,256.615,254.589z"/>
<circle cx="221.135" cy="190.008" r="8.695"/>
<path style="fill:#E6B593;" d="M256.586,31.986c-1.061,0-2.115,0.036-3.167,0.087c-0.232,0.012-0.464,0.023-0.696,0.037
	c-1.059,0.064-2.114,0.147-3.163,0.262l-0.463,0.058c-1.064,0.132-2.127,0.278-3.184,0.457c-0.003,0.001-0.008,0.001-0.012,0.002
	c-1.082,0.182-2.158,0.387-3.228,0.624h-0.001l0,0c-42.817,9.469-75.579,61.933-75.579,125.239c0,3.107,0.082,6.188,0.238,9.24
	c0.685-0.358,1.367-0.724,2.047-1.095c26.35-14.399,59.207-5.237,75.101,20.238c11.377,18.234,25.508,33.698,41.617,45.453
	c6.395,4.667,7.741,13.629,2.893,19.888c-12.654,16.335-28.622,27.604-46.318,31.516c4.535,1.003,9.181,1.528,13.914,1.528
	c49.425,0,89.492-56.755,89.492-126.767C346.079,88.742,306.011,31.986,256.586,31.986z"/>
<path style="fill:#58595B;" d="M256.586,8.796c-61.738,0-111.787,61.947-111.787,138.362c0,3.904,0.138,7.766,0.393,11.588
	c32.733-0.14,62.151-17.689,82.523-45.563c12.574,59.379,56.22,103.188,108.137,103.188c6.268,0,14.398-1.147,18.401-1.877
	c8.426-19.076,14.118-42.891,14.118-67.337C368.373,70.743,318.324,8.796,256.586,8.796z"/>
<path style="fill:#414042;" d="M256.586,8.796c-7.952,0-15.708,1.035-23.19,2.989c50.608,13.216,88.595,68.8,88.595,135.373
	c0,23.55-4.77,45.711-13.155,65.122c8.653,2.659,17.699,4.092,27.016,4.092c6.268,0,12.381-0.848,18.401-1.877
	c8.988-19.931,14.118-42.891,14.118-67.337C368.373,70.743,318.324,8.796,256.586,8.796z"/>
<path style="fill:#F1F2F2;" d="M491.965,451.999L491.965,451.999v37.49c0,0-13.603,13.914-19.615,13.914
	s-13.603-13.914-19.615-13.914s-13.603,13.914-19.615,13.914s-13.603-13.914-19.615-13.914s-13.603,13.914-19.615,13.914
	s-13.603-13.914-19.615-13.914s-13.603,13.914-19.615,13.914s-13.603-13.914-19.615-13.914s-13.603,13.914-19.615,13.914
	s-13.603-13.914-19.615-13.914s-13.603,13.914-19.615,13.914s-13.603-13.914-19.615-13.914s-13.603,13.914-19.615,13.914
	s-13.603-13.914-19.615-13.914s-13.603,13.914-19.615,13.914s-13.603-13.914-19.615-13.914c-6.012,0-13.603,13.914-19.615,13.914
	c-6.012,0-13.603-13.914-19.615-13.914s-13.603,13.914-19.615,13.914c-6.012,0-13.603-13.914-19.615-13.914
	c-6.012,0-13.603,13.914-19.615,13.914c-6.012,0-13.603-13.914-19.615-13.914s-13.603,13.914-19.615,13.914
	s-19.615-13.914-19.615-13.914v-37.49l0,0c0-63.849,43.405-119.526,105.325-135.103l48.568-13.506l22.932-6.377
	c0,0,19.132,24.35,54.062,24.35c38.698,0,63.048-24.35,63.048-24.35l20.161,4.964l54.16,13.334
	c60.533,16.584,102.501,71.598,102.501,134.362v2.326H491.965z"/>
<path style="fill:#D1D3D4;" d="M254.701,343.575c33.262,0,62.668-16.43,80.605-41.598l-20.165-4.964c0,0-24.35,24.35-63.048,24.35
	c-34.93,0-54.062-24.35-54.062-24.35l-22.93,6.377C193.122,327.763,222.061,343.575,254.701,343.575z"/>
<path d="M391.183,306.822c-0.073-0.021-0.146-0.038-0.219-0.057l-35.334-8.519c-4.66-1.149-9.375,1.701-10.523,6.365
	c-1.148,4.664,1.702,9.376,6.366,10.523l35.22,8.491c56.529,15.536,95.998,67.312,95.998,125.945v36.167
	c-3.886,3.665-8.098,7.028-10.514,8.388c-1.206-1.009-2.879-2.72-3.993-3.86c-4.388-4.487-9.359-9.574-16.026-9.574
	s-11.639,5.087-16.026,9.574c-0.994,1.017-2.434,2.489-3.589,3.511c-1.155-1.022-2.595-2.494-3.589-3.511
	c-4.388-4.487-9.359-9.574-16.026-9.574s-11.639,5.087-16.026,9.574c-0.994,1.017-2.434,2.489-3.59,3.511
	c-1.155-1.022-2.595-2.494-3.589-3.511c-4.388-4.487-9.359-9.574-16.026-9.574s-11.639,5.087-16.026,9.574
	c-0.994,1.017-2.434,2.489-3.589,3.511c-1.156-1.022-2.595-2.494-3.59-3.511c-4.388-4.487-9.359-9.574-16.026-9.574
	s-11.639,5.087-16.026,9.574c-0.994,1.017-2.434,2.489-3.589,3.511c-1.155-1.022-2.595-2.494-3.589-3.511
	c-4.388-4.487-9.36-9.574-16.026-9.574c-6.666,0-11.639,5.087-16.026,9.574c-0.994,1.017-2.434,2.489-3.59,3.511
	c-1.155-1.022-2.595-2.494-3.589-3.511c-4.388-4.487-9.36-9.574-16.025-9.574c-6.666,0-11.639,5.087-16.026,9.574
	c-0.994,1.017-2.434,2.489-3.589,3.511c-1.156-1.022-2.595-2.494-3.59-3.511c-4.388-4.487-9.36-9.574-16.026-9.574
	c-6.666,0-11.639,5.087-16.025,9.574c-0.994,1.017-2.434,2.489-3.589,3.511c-1.155-1.022-2.595-2.494-3.589-3.511
	c-4.388-4.487-9.36-9.574-16.026-9.574c-6.666,0-11.639,5.087-16.025,9.574c-0.994,1.017-2.434,2.489-3.59,3.511
	c-1.155-1.022-2.595-2.494-3.589-3.511c-4.388-4.487-9.36-9.574-16.025-9.574c-6.666,0-11.639,5.087-16.026,9.574
	c-0.994,1.017-2.434,2.489-3.589,3.511c-1.156-1.022-2.595-2.494-3.59-3.511c-4.388-4.487-9.36-9.574-16.026-9.574
	c-6.666,0-11.639,5.087-16.026,9.574c-0.994,1.017-2.434,2.489-3.589,3.511c-1.155-1.022-2.595-2.494-3.589-3.511
	c-4.388-4.487-9.36-9.574-16.026-9.574s-11.639,5.087-16.026,9.574c-1.114,1.14-2.787,2.851-3.993,3.86
	c-2.416-1.361-6.63-4.723-10.514-8.388v-33.841c0-59.953,40.607-112.042,98.75-126.669c0.07-0.019,0.139-0.036,0.209-0.056
	l66.335-18.448c7.829,7.88,26.757,23.232,55.446,23.232c0.231,0,0.453-0.012,0.683-0.013c0.257,0.002,0.508,0.013,0.766,0.013
	c17.008,0,31.445-4.267,42.663-9.405c16.138-7.278,25.355-16.298,26.519-17.477c1.59-1.59,2.53-3.796,2.561-6.045l0.555-40.117
	c7.036-9.264,13.117-20.073,17.998-32.19c4.558-0.301,9.115-0.889,13.611-1.811c2.734-0.56,5.033-2.399,6.181-4.944
	c9.739-21.595,14.887-46.116,14.887-70.913C376.489,65.97,322.441,0,256.006,0S135.523,65.97,135.523,147.059
	c0,3.986,0.139,8.082,0.414,12.171c0.306,4.568,4.101,8.114,8.675,8.114c0.013,0,0.026,0,0.038,0
	c28.931-0.124,56.753-12.979,78.391-35.779c16.371,51.213,55.065,87.107,100.078,92.636c-3.926,8.564-8.546,16.235-13.707,22.911
	c-0.765,0.676-1.413,1.48-1.904,2.385c-14.258,17.322-32.351,27.229-51.503,27.229c-18.002,0-35.087-8.594-49.405-24.854
	c-14.493-16.456-24.834-39.693-29.12-65.43c-0.79-4.738-5.268-7.946-10.007-7.15c-4.738,0.788-7.939,5.269-7.15,10.007
	c4.56,27.385,14.853,51.092,28.908,69.008l-0.395,31.977l-65.113,18.108c-65.826,16.612-111.794,75.61-111.794,143.511v37.49
	c0,2.273,0.889,4.455,2.478,6.079c7.372,7.541,17.839,16.531,25.833,16.531c6.666,0,11.639-5.087,16.026-9.574
	c0.994-1.017,2.434-2.489,3.59-3.511c1.155,1.022,2.595,2.494,3.589,3.511c4.388,4.487,9.36,9.574,16.026,9.574
	c6.666,0,11.639-5.087,16.026-9.574c0.994-1.017,2.434-2.489,3.589-3.511c1.156,1.022,2.595,2.494,3.59,3.511
	c4.388,4.487,9.36,9.574,16.026,9.574s11.639-5.087,16.026-9.574c0.994-1.017,2.434-2.489,3.589-3.511
	c1.155,1.022,2.595,2.494,3.589,3.511c4.388,4.487,9.36,9.574,16.026,9.574c6.666,0,11.639-5.087,16.025-9.574
	c0.994-1.017,2.434-2.489,3.59-3.511c1.155,1.022,2.595,2.494,3.589,3.511c4.388,4.487,9.36,9.574,16.026,9.574
	s11.639-5.087,16.026-9.574c0.994-1.017,2.434-2.489,3.589-3.511c1.156,1.022,2.595,2.494,3.59,3.511
	c4.388,4.487,9.36,9.574,16.026,9.574c6.666,0,11.639-5.087,16.025-9.574c0.994-1.017,2.434-2.489,3.589-3.511
	c1.155,1.022,2.595,2.494,3.589,3.511c4.388,4.487,9.359,9.574,16.025,9.574s11.639-5.087,16.026-9.574
	c0.994-1.017,2.434-2.489,3.59-3.511c1.155,1.022,2.595,2.494,3.589,3.511c4.388,4.487,9.36,9.574,16.026,9.574
	s11.639-5.087,16.026-9.574c0.994-1.017,2.434-2.489,3.589-3.511c1.156,1.022,2.595,2.494,3.59,3.511
	c4.388,4.487,9.36,9.574,16.026,9.574s11.639-5.087,16.026-9.574c0.994-1.017,2.434-2.489,3.589-3.511
	c1.155,1.022,2.595,2.494,3.589,3.511c4.388,4.487,9.359,9.574,16.026,9.574s11.639-5.087,16.026-9.574
	c0.994-1.017,2.434-2.489,3.59-3.511c1.155,1.022,2.595,2.494,3.589,3.511c4.388,4.487,9.359,9.574,16.026,9.574
	s11.639-5.087,16.026-9.574c0.994-1.017,2.434-2.489,3.589-3.511c1.156,1.022,2.595,2.494,3.59,3.511
	c4.388,4.487,9.359,9.574,16.026,9.574c7.995,0,18.46-8.99,25.833-16.531c1.589-1.624,2.478-3.807,2.478-6.079v-39.819
	C500.082,383.09,455.301,324.39,391.183,306.822C391.109,306.803,455.301,324.39,391.183,306.822z M235.645,111.283
	c-0.711-3.357-3.329-5.982-6.685-6.701c-0.608-0.131-1.219-0.194-1.824-0.194c-2.739,0-5.363,1.296-7.021,3.565
	c-17.518,23.967-41.64,38.77-67.181,41.529c-0.013-0.813-0.019-1.62-0.019-2.423c-0.001-71.5,46.246-129.667,103.089-129.667
	s103.09,58.168,103.09,129.666c0,20.762-3.984,41.264-11.55,59.596c-4.079,0.612-8.19,0.922-12.272,0.922
	C288.62,207.576,247.65,167.98,235.645,111.283z M256.006,294.116c18.109,0,35.316-6.694,50.157-18.79l-0.243,17.613
	c-3.265,2.682-9.622,7.366-18.463,11.49c-9.391,4.302-21.723,7.985-36.545,8.124c-24.261-0.221-39.595-13.6-44.722-18.905
	l0.22-17.859C221.029,287.504,237.999,294.116,256.006,294.116z"/>
</svg>