<?xml version="1.0" encoding="iso-8859-1"?>
<!-- Uploaded to: SVG Repo, www.svgrepo.com, Generator: SVG Repo Mixer Tools -->
<svg height="800px" width="800px" version="1.1" id="Layer_1" xmlns="http://www.w3.org/2000/svg" xmlns:xlink="http://www.w3.org/1999/xlink" 
	 viewBox="0 0 512 512" xml:space="preserve">
<path style="fill:#FFE5BB;" d="M38.314,485.7c-2.885,0-5.224-2.339-5.224-5.224v-53.29c0-40.01,31.249-73.43,71.142-76.085v-54.309
	c0-2.886,2.34-5.224,5.224-5.224h65.651c2.885,0,5.224,2.338,5.224,5.224V351.1c39.893,2.655,71.142,36.075,71.142,76.085v53.29
	c0,2.886-2.339,5.224-5.224,5.224H38.314z"/>
<path style="fill:#FF8163;" d="M38.314,485.7h207.935c2.883,0,5.217-2.332,5.223-5.214v-16.747
	c0-30.576-24.648-55.361-55.054-55.361c-27,0-49.445,19.549-54.138,45.339c-4.693-25.79-27.138-45.339-54.138-45.339
	c-30.405,0-55.054,24.786-55.054,55.361v16.737C33.09,483.361,35.429,485.7,38.314,485.7z"/>
<path style="opacity:0.1;enable-background:new    ;" d="M66.004,480.475v-53.29c0-40.01,31.249-73.43,71.142-76.085v-54.309
	c0-2.886,2.34-5.224,5.224-5.224h-32.914c-2.885,0-5.224,2.338-5.224,5.224V351.1c-39.893,2.655-71.142,36.075-71.142,76.085v53.29
	c0,2.886,2.34,5.224,5.224,5.224h32.914C68.344,485.7,66.004,483.361,66.004,480.475z"/>
<path style="fill:#FFE5BB;" d="M249.161,224.321c0,52.725-42.725,95.465-95.427,95.465h-22.902
	c-52.705,0-95.428-42.74-95.428-95.465v-87.829c0-52.725,42.725-95.467,95.428-95.467h22.902c52.703,0,95.427,42.743,95.427,95.467
	L249.161,224.321L249.161,224.321z"/>
<path style="opacity:0.1;enable-background:new    ;" d="M68.318,224.321v-87.829c0-51.045,40.046-92.733,90.422-95.336
	c-1.658-0.086-3.327-0.131-5.006-0.131h-22.902c-52.705,0-95.428,42.743-95.428,95.467v87.829c0,52.725,42.725,95.465,95.428,95.465
	h22.902c1.679,0,3.348-0.045,5.006-0.131C108.362,317.051,68.318,275.365,68.318,224.321z"/>
<path style="fill:#C69C6D;" d="M147.676,26.3h-10.208C65.875,26.3,7.837,84.29,7.837,155.827v181.541
	c0,29.386,9.799,56.48,26.303,78.215c5.352-34.687,34.28-62.088,70.243-64.482v-35.077c-39.759-11.522-68.828-48.215-68.828-91.702
	v-55.047h134.46l15.184-26.3l15.183,26.3h48.93v55.047c0,43.488-29.07,80.181-68.83,91.702V351.1
	c36.067,2.4,65.064,29.951,70.294,64.779c16.642-21.784,26.532-48.992,26.532-78.513V155.827
	C277.31,84.29,219.272,26.3,147.676,26.3z"/>
<g style="opacity:0.1;">
	<path d="M40.751,337.367v-81.901c-3.367-9.761-5.197-20.24-5.197-31.146v-55.046h5.197v-13.447
		c0-67.714,52.002-123.28,118.279-129.027c-3.743-0.324-7.527-0.499-11.354-0.499h-10.208C65.875,26.3,7.837,84.29,7.837,155.827
		v181.541c0,29.386,9.799,56.48,26.303,78.215c1.944-12.595,7.007-24.221,14.375-34.045
		C43.506,367.749,40.751,352.884,40.751,337.367z"/>
</g>
<path style="fill:#F9EEB7;" d="M493.594,92.678H339.275c-5.837,0-10.569,4.734-10.569,10.573v29.642l-21.667,12.515
	c-1.634,0.944-2.643,2.69-2.643,4.578c0,1.89,1.008,3.634,2.643,4.58l21.667,12.515v90.553c0,5.84,4.732,10.573,10.569,10.573
	h154.319c5.837,0,10.569-4.733,10.569-10.573V103.252C504.163,97.414,499.431,92.678,493.594,92.678z"/>
<path style="fill:#FF8163;" d="M416.557,228.979c-1.601,0.004-3.139-0.633-4.274-1.768l-41.736-41.759
	c-5.901-5.899-9.158-13.75-9.172-22.106c-0.016-8.356,3.214-16.221,9.092-22.14c5.88-5.922,13.705-9.19,22.034-9.207
	c8.33-0.015,16.167,3.225,22.066,9.125l1.834,1.832l1.826-1.84c5.88-5.92,13.702-9.189,22.033-9.206
	c8.33-0.014,16.168,3.225,22.067,9.125c5.9,5.898,9.16,13.75,9.175,22.104c0.015,8.358-3.215,16.223-9.094,22.142l-41.585,41.911
	C419.694,228.332,418.159,228.977,416.557,228.979z"/>
<path style="opacity:0.1;enable-background:new    ;" d="M431.467,214.084c-1.601,0.004-3.139-0.633-4.274-1.768l-41.736-41.759
	c-5.899-5.898-9.157-13.75-9.172-22.106c-0.008-4.735,1.027-9.313,2.994-13.469c-3.232,1.526-6.214,3.607-8.812,6.222
	c-5.878,5.919-9.107,13.784-9.092,22.14c0.016,8.356,3.273,16.207,9.172,22.106l41.736,41.759c1.135,1.135,2.673,1.772,4.274,1.768
	c1.602-0.002,3.137-0.646,4.266-1.785l14.122-14.234C433.935,213.681,432.723,214.082,431.467,214.084z"/>
<g>
	<path style="fill:#FF9C88;" d="M79.412,250.253H64.784c-4.328,0-7.837-3.508-7.837-7.837c0-4.329,3.509-7.837,7.837-7.837h14.629
		c4.328,0,7.837,3.508,7.837,7.837C87.249,246.745,83.74,250.253,79.412,250.253z"/>
	<path style="fill:#FF9C88;" d="M221.518,250.253H206.89c-4.328,0-7.837-3.508-7.837-7.837c0-4.329,3.509-7.837,7.837-7.837h14.629
		c4.328,0,7.837,3.508,7.837,7.837C229.355,246.745,225.846,250.253,221.518,250.253z"/>
</g>
<path style="fill:#FFFFFF;" d="M130.195,289.643c-12.441,0-22.562-10.124-22.562-22.572v-6.449c0-2.227,1.805-4.03,4.028-4.03h61.24
	c2.225,0,4.028,1.805,4.028,4.03v6.449c0,12.447-10.122,22.572-22.562,22.572H130.195z"/>
<path style="fill:#EED063;" d="M155.432,384.345c0,7.502-6.081,13.584-13.584,13.584l0,0c-7.502,0-13.584-6.081-13.584-13.584l0,0
	c0-7.502,6.081-13.584,13.584-13.584l0,0C149.35,370.761,155.432,376.842,155.432,384.345L155.432,384.345z"/>
<path d="M493.594,84.842H339.275c-10.149,0-18.406,8.259-18.406,18.41v25.118l-17.749,10.25c-4.047,2.336-6.561,6.69-6.561,11.364
	c0,4.67,2.511,9.024,6.56,11.365l17.75,10.253v86.03c0,10.151,8.257,18.41,18.406,18.41h90.178c4.329,0,7.837-3.508,7.837-7.837
	s-3.508-7.837-7.837-7.837h-90.178c-1.507,0-2.732-1.228-2.732-2.737v-90.553c0-2.799-1.493-5.385-3.917-6.786l-17.845-10.307
	l17.845-10.307c2.424-1.4,3.917-3.986,3.917-6.786v-29.643c0-1.509,1.226-2.737,2.732-2.737h154.319
	c1.507,0,2.732,1.228,2.732,2.737v154.381c0,1.509-1.226,2.737-2.732,2.737h-33.839c-4.329,0-7.837,3.508-7.837,7.837
	s3.508,7.837,7.837,7.837h33.839c10.149,0,18.406-8.259,18.406-18.41V103.252C512,93.101,503.743,84.842,493.594,84.842z"/>
<path d="M479.339,163.124c-0.021-10.442-4.094-20.255-11.471-27.629c-7.364-7.365-17.151-11.422-27.625-11.422
	c-8.757,0.018-17.068,2.906-23.864,8.219c-6.796-5.275-15.103-8.131-23.895-8.131c-10.429,0.021-20.224,4.113-27.58,11.521
	c-7.349,7.402-11.386,17.23-11.367,27.676c0.019,10.445,4.092,20.26,11.467,27.631l41.737,41.761c2.622,2.621,6.101,4.064,9.8,4.064
	c0.003,0,0.022,0,0.025,0c3.659-0.005,7.239-1.5,9.819-4.102l41.582-41.908C475.319,183.404,479.356,173.574,479.339,163.124z
	 M456.845,179.763l-40.304,40.62l-40.453-40.474c-4.422-4.422-6.865-10.31-6.876-16.578c-0.011-6.269,2.41-12.167,6.816-16.606
	c4.4-4.431,10.256-6.879,16.527-6.891c6.217,0,12.066,2.425,16.473,6.834c2.12,2.117,4.14,4.126,7.381,4.123
	c3.248-0.003,5.264-2.024,7.378-4.155c4.401-4.431,10.257-6.879,16.524-6.891c6.22,0,12.072,2.425,16.476,6.831
	c4.424,4.423,6.867,10.311,6.88,16.575C463.677,169.425,461.255,175.322,456.845,179.763z"/>
<path d="M105.39,218.073v-13.808c0-4.329-3.509-7.837-7.837-7.837s-7.837,3.508-7.837,7.837v13.808c0,4.329,3.509,7.837,7.837,7.837
	S105.39,222.402,105.39,218.073z"/>
<path d="M187.011,225.91c4.328,0,7.837-3.508,7.837-7.837v-13.808c0-4.329-3.509-7.837-7.837-7.837
	c-4.328,0-7.837,3.508-7.837,7.837v13.808C179.174,222.402,182.682,225.91,187.011,225.91z"/>
<path d="M130.195,297.479h24.174c16.762,0,30.399-13.641,30.399-30.409v-6.449c0-6.544-5.323-11.867-11.865-11.867h-61.24
	c-6.542,0-11.865,5.324-11.865,11.867v6.449C99.796,283.839,113.433,297.479,130.195,297.479z M115.47,264.428h53.624v2.643
	c0,8.124-6.606,14.735-14.726,14.735h-24.174c-8.12,0-14.726-6.61-14.726-14.735v-2.643H115.47z"/>
<path d="M147.676,18.463h-10.208C61.669,18.463,0,80.084,0,155.827v181.541c0,29.054,8.934,56.666,25.828,80.108
	c-0.38,3.244-0.574,6.498-0.574,9.71v36.553v16.737c0,0.272,0.014,0.539,0.041,0.802c0.418,6.827,6.09,12.259,13.02,12.259h37.962
	c4.328,0,7.837-3.508,7.837-7.837s-3.509-7.837-7.837-7.837H40.927v-14.125c0-26.205,21.181-47.524,47.217-47.524
	c22.8,0,42.326,16.362,46.428,38.905c0.678,3.725,3.924,6.433,7.71,6.433c3.787,0,7.032-2.708,7.71-6.433
	c4.102-22.543,23.627-38.905,46.428-38.905c26.036,0,47.217,21.319,47.217,47.524v14.125H105.535c-4.328,0-7.837,3.508-7.837,7.837
	s3.509,7.837,7.837,7.837h140.714c7.202,0,13.061-5.859,13.061-13.061v-53.29c0-2.997-0.169-6.019-0.495-9.022
	c17.22-23.588,26.33-51.447,26.33-80.797V309.29c0-4.329-3.508-7.837-7.837-7.837c-4.328,0-7.837,3.508-7.837,7.837v28.077
	c0,21.223-5.363,41.576-15.629,59.7c-10.732-27.703-35.771-48.305-65.525-52.971v-22.368c18.782-6.669,35.564-18.875,47.719-34.816
	c13.81-18.112,21.11-39.756,21.11-62.59v-55.048c0-4.329-3.509-7.837-7.837-7.837h-44.405l-12.922-22.382
	c-1.4-2.424-3.987-3.918-6.787-3.918s-5.386,1.494-6.787,3.918l-12.922,22.382H35.554c-4.328,0-7.837,3.508-7.837,7.837v55.047
	c0,22.835,7.3,44.477,21.11,62.589c12.154,15.941,28.937,28.148,47.719,34.817v22.369c-29.613,4.653-54.602,25.141-65.403,52.688
	c-10.163-18.056-15.47-38.31-15.47-59.417V155.827c0-67.1,54.638-121.69,121.795-121.69h10.208
	c67.159,0,121.796,54.59,121.796,121.69v123.161c0,4.329,3.509,7.837,7.837,7.837c4.329,0,7.837-3.508,7.837-7.837V155.827
	C285.146,80.084,223.478,18.463,147.676,18.463z M43.39,224.321V177.11h126.623c2.8,0,5.386-1.494,6.787-3.918l8.398-14.545
	l8.398,14.545c1.4,2.424,3.986,3.918,6.787,3.918h40.942v47.211c0,48.318-39.293,87.628-87.591,87.628h-22.902
	c-8.399,0-16.515-1.213-24.209-3.43c-0.02-0.006-0.038-0.017-0.057-0.022C69.369,297.717,43.39,263.102,43.39,224.321z
	 M141.848,362.924c-3.681,0-7.148,0.935-10.178,2.578c-10.539-3.987-18.294-13.731-19.451-25.401v-14.177
	c6.04,1.107,12.257,1.699,18.612,1.699h22.902c6.431,0,12.722-0.607,18.83-1.741l-0.104,12.665
	c-0.601,12.553-8.818,23.132-20.097,27.156C149.252,363.942,145.669,362.924,141.848,362.924z M147.595,384.345
	c0,3.169-2.578,5.747-5.747,5.747c-3.169,0-5.747-2.578-5.747-5.747s2.578-5.747,5.747-5.747
	C145.017,378.598,147.595,381.176,147.595,384.345z M41.885,416.776c4.701-30.466,29.768-54.27,60.161-57.603
	c4.414,8.06,11.17,14.642,19.334,18.855c-0.618,1.998-0.953,4.118-0.953,6.316c0,11.812,9.609,21.42,21.42,21.42
	s21.42-9.609,21.42-21.42c0-2.066-0.309-4.056-0.858-5.947c8.514-4.191,15.546-10.938,20.099-19.252
	c30.216,3.168,55.157,26.495,60.289,56.572c-0.008,0.438,0.01,0.88,0.078,1.327c0.237,1.58,0.414,3.17,0.541,4.764
	c-11.528-13.034-28.321-21.266-46.998-21.266c-22.773,0-43.092,12.237-54.138,31.001c-11.046-18.764-31.366-31.001-54.138-31.001
	c-18.675,0-35.468,8.232-46.996,21.264C41.248,420.561,41.816,417.224,41.885,416.776z"/>
</svg>